<svg xmlns="http://www.w3.org/2000/svg" viewBox="0 0 500 500"><defs><style>.cls-1{isolation:isolate;}.cls-2{fill:#ebe2db;}.cls-14,.cls-3{fill:#f79702;}.cls-4{fill:#eb7c00;}.cls-5{fill:#da2c0f;}.cls-6{fill:#fa461a;}.cls-7{fill:#fff;}.cls-16,.cls-8{fill:#373543;}.cls-9{fill:#6511bc;}.cls-10{fill:#1a100e;}.cls-11{fill:#8028d8;}.cls-12{fill:#b31111;}.cls-13,.cls-14{mix-blend-mode:multiply;}.cls-14{opacity:0.5;}.cls-15{fill:#a056e5;}.cls-16{font-size:49.74px;font-family:Montserrat-Black, Montserrat;font-weight:800;}.cls-17{fill:#f9af8b;}.cls-18{fill:#fc8664;}.cls-19{fill:#fd664d;}.cls-20{fill:#fbf5ee;}</style></defs><title>help_crea</title><g class="cls-1"><g id="OBJECTS"><path class="cls-2" d="M118.5,436C39.55,389.56,20.59,215.53,81.69,149.1c.61-.66,1.23-1.31,1.84-2,42.62-44.74,117-25.45,133.49,34.42,10.28,37.27,33.31,77.78,84.89,67.08C393.21,229.7,446.67,239,457.5,315.5c5,35.24-23.34,102.35-105.5,120.5Z"/><path class="cls-2" d="M56.23,380.92a32.17,32.17,0,0,0-3.8-25.28C47.9,348.26,41,340.55,33.37,344.58c-13.39,7.08,2.11,41.49,13.47,44.78C52,390.85,54.75,386.32,56.23,380.92Z"/><path class="cls-2" d="M327.3,203c-6.78-6.69-16.66-7.85-25.22-6-8.86,1.91-18.78,7.39-18.1,18.19,1.19,19,39.22,16.61,46.92,4.39C334.39,214,331,206.65,327.3,203Z"/><ellipse class="cls-2" cx="238.21" cy="440.05" rx="218.67" ry="11.63"/><path class="cls-3" d="M196.1,262.33c-2.08-1.12-5.57-1.74-10.18-1.85-3.94-.09-7.66-7.85-3.17-18.48s.79-24.67-5.23-25.22-.78,8.79-8.54,7.36S160,202.05,150,203.19c-8.76,1-3.15,16.3,1.2,22.74,4.11,6.09,2.89,12.27-1.72,10.92s-9.21,5.05-2.35,15,16.15,19.82,11.68,21-13.77-8.62-17.74,2.93c-1.77,5.17,9.49,23,34.46,24.46l10.64-11.53Z"/><path class="cls-4" d="M183.28,288.65c-10.55-28-28.27-70.86-28.49-71.38a.65.65,0,0,1,1.2-.49c.21.52,18.13,43.87,28.67,71.87Z"/><path class="cls-4" d="M167.56,247.66a.67.67,0,0,1-.3-.1.65.65,0,0,1-.17-.9c0-.08,5.57-8.22,7.21-14.09a.65.65,0,0,1,.79-.45.65.65,0,0,1,.45.8c-1.7,6.07-7.15,14.13-7.39,14.47A.61.61,0,0,1,167.56,247.66Z"/><path class="cls-4" d="M169.93,254.55h0c-.4-.06-9.75-1.5-16.09-5a.64.64,0,1,1,.62-1.13c6.13,3.36,15.56,4.81,15.66,4.83a.64.64,0,0,1,.54.73A.65.65,0,0,1,169.93,254.55Z"/><path class="cls-4" d="M186.2,274.4a54.48,54.48,0,0,1-5.68,5.82.65.65,0,0,0-.07.91.63.63,0,0,0,.91.07,53.38,53.38,0,0,0,4.84-4.81Z"/><path class="cls-4" d="M172.84,286.92a38.07,38.07,0,0,1-11.06-2.46.65.65,0,1,1,.51-1.19c7.94,3.38,20.67,2.53,20.79,2.52a.64.64,0,0,1,.69.6.65.65,0,0,1-.6.69A71.31,71.31,0,0,1,172.84,286.92Z"/><path class="cls-3" d="M373.65,339.74c3.58-14.45,9.63-27.47,15.34-21.64s-5.12,28-20.09,39.85l-4.13,5.24c10.76-8.79,27.53-13.45,31.7-7.91s-7.3,7.6-18.08,7.76c-8.2.12-13.54,2.08-16.14,3.34l-19.52,24.71c17.08-13.87,43.56-21.19,50.16-12.42S381.3,390.72,364.2,391c-12.92.19-21.36,3.26-25.54,5.26l-3.89,4.93-2.87-1.64,23.22-29.4a42.48,42.48,0,0,0-1-13.23c-2.34-10.52-3-22.14,3.36-19.38,5.48,2.39,5.76,15.65,1.84,27.28l8-10.17A61.62,61.62,0,0,0,373.65,339.74Z"/><path class="cls-3" d="M145.9,331.35c-3.58-14.44-9.64-27.46-15.35-21.63s5.12,28,20.09,39.85l4.13,5.24c-10.76-8.79-27.53-13.45-31.7-7.91s7.31,7.6,18.08,7.76c8.2.12,13.54,2.08,16.15,3.34l19.51,24.71c-17.07-13.87-43.56-21.19-50.15-12.42s11.59,12,28.68,12.31c12.92.19,21.37,3.26,25.54,5.26l3.89,4.93,2.87-1.64-23.22-29.4a42.48,42.48,0,0,1,1-13.23c2.34-10.52,3-22.14-3.35-19.38-5.49,2.39-5.76,15.65-1.85,27.28l-8-10.17A61.17,61.17,0,0,1,145.9,331.35Z"/><circle class="cls-5" cx="387.89" cy="141.21" r="58.7" transform="translate(78.23 414.18) rotate(-61.4)"/><circle class="cls-6" cx="381.18" cy="141.21" r="58.7" transform="translate(11.79 310.89) rotate(-45)"/><circle class="cls-7" cx="381.18" cy="141.21" r="46.39" transform="translate(-3.59 272.33) rotate(-39.15)"/><circle class="cls-6" cx="381.18" cy="141.21" r="34.09" transform="translate(-23.91 175.03) rotate(-25.1)"/><circle class="cls-7" cx="381.18" cy="141.21" r="21.79" transform="translate(-24.93 123.47) rotate(-17.83)"/><path class="cls-6" d="M383.74,150.34a9.48,9.48,0,1,1,6.57-11.69A9.49,9.49,0,0,1,383.74,150.34Z"/><path class="cls-8" d="M446.87,105.06,432.7,102.9l2.16-14.17a1.5,1.5,0,0,0-3-.45l-2.34,15.31-5.44,4L426,95.25a1.5,1.5,0,1,0-3-.45l-2.33,15.31-6.87,5.06,1.88-12.34a1.5,1.5,0,1,0-3-.45l-2.33,15.31-29,21.32a4.45,4.45,0,0,0,0,3.73l31.07-22.86,14.77,2.25a1.5,1.5,0,1,0,.45-3l-11.8-1.8,6.87-5.06,14.77,2.25a1.5,1.5,0,1,0,.46-3l-11.8-1.79,5.44-4L446.42,108a1.5,1.5,0,0,0,.45-3Z"/><path class="cls-4" d="M160.35,85.46v23.39a34,34,0,0,0-8.31,1A34.69,34.69,0,0,0,126.35,137a31.43,31.43,0,0,0-.48,3.39H102.42c.06-1.14.15-2.27.28-3.39A58,58,0,0,1,152,86.05,58.69,58.69,0,0,1,160.35,85.46Z"/><path class="cls-5" d="M218.29,140.34H194.84c-.1-1.12-.26-2.23-.46-3.32a34.69,34.69,0,0,0-34-28.17,34,34,0,0,0-8.31,1V82.14a68.1,68.1,0,0,1,49.34,20.31A57.62,57.62,0,0,1,218,137C218.14,138.12,218.23,139.23,218.29,140.34Z"/><path class="cls-9" d="M160.35,178.11V201.5a58.69,58.69,0,0,1-8.31-.59,58,58,0,0,1-49.67-55.74c0-.56,0-1.12,0-1.69,0-1,0-2.1.08-3.14s.15-2.27.28-3.39h23.65a31.43,31.43,0,0,0-.48,3.39c-.1,1-.14,2.08-.14,3.14,0,.57,0,1.13,0,1.69a34.6,34.6,0,0,0,34.57,32.94Z"/><path class="cls-10" d="M218.37,143.48c0,1.07,0,2.14-.09,3.2a58,58,0,0,1-57.93,54.82,58.69,58.69,0,0,1-8.31-.59V177.1a34.64,34.64,0,0,0,42.79-30.42c.1-1.05.15-2.12.15-3.2s0-2.11-.14-3.14-.26-2.23-.46-3.32H218c.12,1.1.21,2.21.27,3.32S218.37,142.43,218.37,143.48Z"/><path class="cls-11" d="M117.41,140.16c0-1.06,0-2.1.14-3.14H94.1c0,1-.08,2.09-.08,3.14a58,58,0,0,0,58,58V174.79A34.66,34.66,0,0,1,117.41,140.16Z"/><path class="cls-8" d="M210,137H186.52c.1,1,.14,2.08.14,3.14A34.66,34.66,0,0,1,152,174.79v23.39a58,58,0,0,0,58-58C210.05,139.11,210,138.06,210,137Z"/><path class="cls-3" d="M152,105.53V82.14A58,58,0,0,0,94.1,137h23.45A34.67,34.67,0,0,1,152,105.53Z"/><path class="cls-6" d="M186.52,137H210A58,58,0,0,0,152,82.14v23.39A34.67,34.67,0,0,1,186.52,137Z"/><rect class="cls-5" x="199.48" y="262.33" width="144.86" height="144.86"/><rect class="cls-6" x="175.03" y="262.33" width="144.86" height="144.86"/><path class="cls-5" d="M303,379.59h-2.94a.85.85,0,0,1,0-1.7H303a.85.85,0,1,1,0,1.7Zm-7.08,0H293a.85.85,0,1,1,0-1.7h2.95a.85.85,0,0,1,0,1.7Zm-7.08,0h-2.95a.85.85,0,1,1,0-1.7h2.95a.85.85,0,1,1,0,1.7Zm-7.09,0h-2.94a.85.85,0,1,1,0-1.7h2.94a.85.85,0,0,1,0,1.7Zm-7.08,0h-2.95a.85.85,0,1,1,0-1.7h2.95a.85.85,0,0,1,0,1.7Zm-7.09,0h-2.94a.85.85,0,1,1,0-1.7h2.94a.85.85,0,1,1,0,1.7Zm-7.08,0h-2.95a.85.85,0,0,1,0-1.7h2.95a.85.85,0,0,1,0,1.7Zm-7.09,0h-2.94a.85.85,0,1,1,0-1.7h2.94a.85.85,0,1,1,0,1.7Zm-7.08,0h-2.94a.85.85,0,1,1,0-1.7h2.94a.85.85,0,0,1,0,1.7Zm-7.08,0h-3a.85.85,0,0,1,0-1.7h3a.85.85,0,0,1,0,1.7Zm-7.09,0h-2.94a.85.85,0,1,1,0-1.7h2.94a.85.85,0,0,1,0,1.7Zm-7.08,0h-2.95a.85.85,0,0,1,0-1.7h2.95a.85.85,0,0,1,0,1.7Zm-7.09,0h-2.94a.85.85,0,0,1,0-1.7H218a.85.85,0,1,1,0,1.7Zm-7.08,0h-3a.85.85,0,0,1,0-1.7h3a.85.85,0,0,1,0,1.7Zm-7.08,0H200.9a.85.85,0,0,1,0-1.7h2.95a.85.85,0,0,1,0,1.7Zm-7.09,0h-2.94a.85.85,0,1,1,0-1.7h2.94a.85.85,0,1,1,0,1.7ZM307,379a.84.84,0,0,1-.7-.37.85.85,0,0,1,.22-1.19,2.94,2.94,0,0,0,1.2-1.86.86.86,0,0,1,1-.68.84.84,0,0,1,.68,1,4.63,4.63,0,0,1-1.92,3A.83.83,0,0,1,307,379ZM190.2,378a.85.85,0,0,1-.69-.36,4.54,4.54,0,0,1-.84-2.63,4.47,4.47,0,0,1,.08-.82,1.27,1.27,0,0,0,.54-1.46l1.47-2.55a.85.85,0,0,1,1.48.85l-1.47,2.55a.85.85,0,0,1-.43.37.8.8,0,0,1,.08.55,3,3,0,0,0,.48,2.16.85.85,0,0,1-.21,1.19A.88.88,0,0,1,190.2,378Zm117.19-5.31a.84.84,0,0,1-.74-.43l-1.47-2.55a.85.85,0,0,1,1.47-.85l1.48,2.55a.85.85,0,0,1-.32,1.16A.81.81,0,0,1,307.39,372.7Zm-113.82-4.82a.8.8,0,0,1-.42-.11.86.86,0,0,1-.32-1.16l1.48-2.56a.85.85,0,1,1,1.47.86l-1.47,2.55A.86.86,0,0,1,193.57,367.88Zm110.28-1.32a.85.85,0,0,1-.74-.42l-1.47-2.55a.85.85,0,1,1,1.47-.86l1.47,2.55a.85.85,0,0,1-.31,1.17A.8.8,0,0,1,303.85,366.56Zm-106.74-4.81a.81.81,0,0,1-.42-.12.84.84,0,0,1-.31-1.16l1.47-2.55a.85.85,0,0,1,1.47.85l-1.47,2.55A.84.84,0,0,1,197.11,361.75Zm103.19-1.32a.82.82,0,0,1-.73-.43l-1.48-2.55a.85.85,0,0,1,1.48-.85l1.47,2.55a.84.84,0,0,1-.31,1.16A.82.82,0,0,1,300.3,360.43Zm-99.65-4.82a.8.8,0,0,1-.42-.11.84.84,0,0,1-.31-1.16l1.47-2.56a.86.86,0,0,1,1.48.86l-1.48,2.55A.84.84,0,0,1,200.65,355.61Zm96.11-1.32a.86.86,0,0,1-.74-.42l-1.47-2.55a.86.86,0,0,1,1.48-.86L297.5,353a.85.85,0,0,1-.31,1.17A.84.84,0,0,1,296.76,354.29Zm-92.56-4.81a.85.85,0,0,1-.43-.12.84.84,0,0,1-.31-1.16l1.47-2.55a.85.85,0,0,1,1.48.85l-1.47,2.55A.85.85,0,0,1,204.2,349.48Zm89-1.32a.85.85,0,0,1-.74-.43L291,345.18a.84.84,0,0,1,.31-1.16.85.85,0,0,1,1.17.31l1.47,2.55a.86.86,0,0,1-.31,1.16A.88.88,0,0,1,293.22,348.16Zm-85.48-4.82a.84.84,0,0,1-.43-.11.86.86,0,0,1-.31-1.16l1.47-2.56a.87.87,0,0,1,1.17-.31.85.85,0,0,1,.31,1.17l-1.47,2.55A.86.86,0,0,1,207.74,343.34ZM289.68,342a.85.85,0,0,1-.74-.42l-1.47-2.55a.85.85,0,1,1,1.47-.86l1.48,2.55a.86.86,0,0,1-.32,1.17A.8.8,0,0,1,289.68,342Zm-78.4-4.81a.81.81,0,0,1-.42-.12.85.85,0,0,1-.32-1.16l1.48-2.55a.85.85,0,1,1,1.47.85L212,336.78A.85.85,0,0,1,211.28,337.21Zm74.86-1.32a.84.84,0,0,1-.74-.43l-1.48-2.55a.85.85,0,0,1,.32-1.16.84.84,0,0,1,1.16.31l1.47,2.55a.84.84,0,0,1-.31,1.16A.81.81,0,0,1,286.14,335.89Zm-71.32-4.82a.8.8,0,0,1-.42-.11.84.84,0,0,1-.31-1.16l1.47-2.56a.85.85,0,1,1,1.47.86l-1.47,2.55A.85.85,0,0,1,214.82,331.07Zm67.77-1.32a.84.84,0,0,1-.73-.42l-1.48-2.55a.86.86,0,0,1,1.48-.86l1.47,2.55a.85.85,0,0,1-.31,1.17A.81.81,0,0,1,282.59,329.75Zm-64.23-4.81a.81.81,0,0,1-.42-.12.84.84,0,0,1-.31-1.16l1.47-2.55a.85.85,0,0,1,1.48.85l-1.48,2.55A.83.83,0,0,1,218.36,324.94Zm60.69-1.32a.85.85,0,0,1-.74-.43l-1.47-2.55a.85.85,0,0,1,1.48-.85l1.47,2.55a.86.86,0,0,1-.74,1.28Zm-57.14-4.82a.84.84,0,0,1-.74-1.27l1.47-2.56a.86.86,0,1,1,1.48.86l-1.47,2.55A.86.86,0,0,1,221.91,318.8Zm53.6-1.32a.86.86,0,0,1-.74-.42l-1.47-2.55a.85.85,0,1,1,1.47-.86l1.48,2.55a.87.87,0,0,1-.31,1.17A.86.86,0,0,1,275.51,317.48Zm-50.06-4.81a.85.85,0,0,1-.43-.12.86.86,0,0,1-.31-1.16l1.47-2.55a.85.85,0,0,1,1.17-.31.84.84,0,0,1,.31,1.16l-1.47,2.55A.85.85,0,0,1,225.45,312.67ZM272,311.35a.86.86,0,0,1-.74-.43l-1.47-2.55a.85.85,0,0,1,1.47-.85l1.48,2.55a.85.85,0,0,1-.32,1.16A.81.81,0,0,1,272,311.35Zm-43-4.82a.8.8,0,0,1-.42-.11.86.86,0,0,1-.32-1.17l1.48-2.55a.85.85,0,1,1,1.47.86l-1.47,2.55A.85.85,0,0,1,229,306.53Zm39.44-1.32a.85.85,0,0,1-.74-.42l-1.48-2.55a.86.86,0,0,1,1.48-.86l1.47,2.55a.85.85,0,0,1-.31,1.17A.8.8,0,0,1,268.43,305.21Zm-35.9-4.81a.81.81,0,0,1-.42-.12.84.84,0,0,1-.31-1.16l1.47-2.55a.85.85,0,0,1,1.47.85L233.27,300A.84.84,0,0,1,232.53,300.4Zm32.35-1.32a.82.82,0,0,1-.73-.43l-1.48-2.55a.85.85,0,0,1,1.48-.85l1.47,2.55a.84.84,0,0,1-.31,1.16A.82.82,0,0,1,264.88,299.08Zm-28.81-4.82a.8.8,0,0,1-.42-.11.84.84,0,0,1-.31-1.16l1.47-2.56a.86.86,0,0,1,1.48.86l-1.48,2.55A.84.84,0,0,1,236.07,294.26Zm25.27-1.32a.86.86,0,0,1-.74-.42L259.13,290a.86.86,0,0,1,1.48-.86l1.47,2.55a.87.87,0,0,1-.31,1.17A.84.84,0,0,1,261.34,292.94Zm-21.72-4.81a.85.85,0,0,1-.43-.12.84.84,0,0,1-.31-1.16l1.47-2.55a.85.85,0,0,1,1.48.85l-1.47,2.55A.85.85,0,0,1,239.62,288.13Zm18.18-1.32a.85.85,0,0,1-.74-.43l-1.47-2.55a.85.85,0,1,1,1.47-.85l1.48,2.55a.86.86,0,0,1-.31,1.16A.88.88,0,0,1,257.8,286.81ZM243.16,282a.84.84,0,0,1-.43-.11.86.86,0,0,1-.31-1.16l1.47-2.56a.87.87,0,0,1,1.17-.31.85.85,0,0,1,.31,1.17l-1.47,2.55A.86.86,0,0,1,243.16,282Zm11.1-1.32a.85.85,0,0,1-.74-.42l-1.47-2.55a.85.85,0,1,1,1.47-.86l1.48,2.55a.86.86,0,0,1-.32,1.17A.8.8,0,0,1,254.26,280.67ZM247,276.08a.85.85,0,0,1-.49-1.55,4.58,4.58,0,0,1,2.59-.8,4.91,4.91,0,0,1,.86.08.85.85,0,0,1-.31,1.68,2.94,2.94,0,0,0-2.17.44A.8.8,0,0,1,247,276.08Z"/><path class="cls-5" d="M291,370.71H207.16a3.72,3.72,0,0,1-3.22-5.58l21-36.31,21-36.31a3.72,3.72,0,0,1,6.44,0l.84,1.46,20.12,34.85,21,36.31A3.71,3.71,0,0,1,291,370.71Z"/><path class="cls-12" d="M291,370.71H215.28a3.72,3.72,0,0,1-3.22-5.58l21-36.31L253.15,294l20.12,34.85,21,36.31A3.71,3.71,0,0,1,291,370.71Z"/><path class="cls-3" d="M316.06,121.11a58.59,58.59,0,0,1-7.84,29.35c-8.87,15.35-17.34,30.94-25,46.91l-4.34,9H235.72l-6.35-13.11c-7-14.49-14.75-28.63-22.88-42.54a58.8,58.8,0,0,1,49.35-88.37l1.7,0A58.79,58.79,0,0,1,316.06,121.11Z"/><g class="cls-13"><path class="cls-14" d="M277.19,148a.91.91,0,0,1-.81-.49l-1.94-3.71-1.93,3.71a.91.91,0,0,1-1.61,0L269,143.79,267,147.5a.9.9,0,0,1-.8.49h0a.91.91,0,0,1-.81-.49l-1.93-3.71-1.94,3.71a.89.89,0,0,1-.8.49h0a.92.92,0,0,1-.81-.49L258,143.79l-1.93,3.71a.91.91,0,0,1-1.62,0l-1.93-3.71-1.93,3.71a.92.92,0,0,1-.81.49h0a.92.92,0,0,1-.81-.49l-1.93-3.71-1.93,3.71a.91.91,0,0,1-1.62,0l-1.93-3.71-1.93,3.71a.92.92,0,0,1-.81.49h0a.92.92,0,0,1-.81-.49l-2.73-5.27a.91.91,0,1,1,1.61-.84l1.93,3.71,1.93-3.71a.91.91,0,0,1,1.62,0l1.93,3.71,1.93-3.71a.91.91,0,0,1,1.62,0l1.93,3.71,1.93-3.71a.91.91,0,0,1,1.62,0l1.93,3.71,1.93-3.71a.91.91,0,0,1,1.62,0l1.93,3.71,1.93-3.71a.92.92,0,0,1,.81-.49h0a.89.89,0,0,1,.8.49l1.94,3.71,1.93-3.71a.89.89,0,0,1,.8-.49.91.91,0,0,1,.81.49l1.93,3.71,1.94-3.71a.89.89,0,0,1,.8-.49.91.91,0,0,1,.81.49l1.94,3.71,1.93-3.71a.91.91,0,0,1,1.61.84L278,147.5A.89.89,0,0,1,277.19,148Z"/></g><polygon class="cls-8" points="245.64 206.35 233.4 144.01 235.18 143.66 247.5 206.37 245.64 206.35"/><path class="cls-8" d="M238.27,143.84a4,4,0,1,1-4-4A4,4,0,0,1,238.27,143.84Z"/><polygon class="cls-8" points="270.84 206.35 283.09 144.01 281.3 143.66 268.99 206.35 270.84 206.35"/><path class="cls-8" d="M278.21,143.84a4,4,0,1,0,4-4A4,4,0,0,0,278.21,143.84Z"/><path class="cls-14" d="M316.06,121.11a58.59,58.59,0,0,1-7.84,29.35c-8.87,15.35-17.34,30.94-25,46.91l-4.34,9H240c25-2.51,53.2-48.06,49.18-91.39-4.13-44.53-31.4-52.21-33.31-52.63l1.7,0A58.79,58.79,0,0,1,316.06,121.11Z"/><rect class="cls-8" x="232.85" y="206.37" width="48.06" height="12.27" rx="2.96"/><path class="cls-10" d="M280.91,211.93v3.76a3,3,0,0,1-3,3H235.81a3,3,0,0,1-3-3v-3.76Z"/><path class="cls-8" d="M280.91,221.61V228a3,3,0,0,1-2.47,2.92,2.63,2.63,0,0,1-.49,0H235.81a2.7,2.7,0,0,1-.49,0,3,3,0,0,1-2.47-2.92v-6.35a3,3,0,0,1,3-3H278A3,3,0,0,1,280.91,221.61Z"/><path class="cls-10" d="M280.91,224.17V228a3,3,0,0,1-2.47,2.92H235.32a3,3,0,0,1-2.47-2.92v-3.79Z"/><path class="cls-8" d="M280.91,233.88v6.35a3,3,0,0,1-2.48,2.92,2.52,2.52,0,0,1-.48,0H235.81a2.59,2.59,0,0,1-.48,0,3,3,0,0,1-2.48-2.92v-6.35a3,3,0,0,1,3-3H278A3,3,0,0,1,280.91,233.88Z"/><path class="cls-10" d="M280.91,236.44v3.79a3,3,0,0,1-2.48,2.92h-43.1a3,3,0,0,1-2.48-2.92v-3.79Z"/><path class="cls-10" d="M245.4,243.19a11.8,11.8,0,0,0,23.59,0Z"/><rect class="cls-7" x="282.35" y="235.59" width="122.8" height="69.68"/><rect class="cls-8" x="282.35" y="235.59" width="122.8" height="5.98"/><path class="cls-3" d="M393.59,238.58a1.24,1.24,0,1,1-1.24-1.24A1.24,1.24,0,0,1,393.59,238.58Z"/><path class="cls-15" d="M397.62,238.58a1.25,1.25,0,1,1-1.24-1.24A1.25,1.25,0,0,1,397.62,238.58Z"/><path class="cls-6" d="M401.44,238.58a1.24,1.24,0,1,1-1.24-1.24A1.24,1.24,0,0,1,401.44,238.58Z"/><path class="cls-8" d="M296.16,300.93a.29.29,0,0,1-.29-.29v-55a.29.29,0,1,1,.58,0v55A.29.29,0,0,1,296.16,300.93Z"/><path class="cls-8" d="M297,245.75a.89.89,0,1,1-.89-.89A.89.89,0,0,1,297,245.75Z"/><path class="cls-8" d="M297,300.64a.89.89,0,1,1-.89-.89A.88.88,0,0,1,297,300.64Z"/><path class="cls-8" d="M391.13,300.93a.29.29,0,0,1-.3-.29v-55a.3.3,0,1,1,.59,0v55A.29.29,0,0,1,391.13,300.93Z"/><path class="cls-8" d="M392,245.75a.89.89,0,1,1-.89-.89A.89.89,0,0,1,392,245.75Z"/><path class="cls-8" d="M392,300.64a.89.89,0,1,1-.89-.89A.88.88,0,0,1,392,300.64Z"/><text class="cls-16" transform="translate(306.87 290.24)">Aa</text><polygon class="cls-17" points="386.53 418.59 386.53 426.16 393.45 426.05 393.9 418.02 386.53 418.59"/><path class="cls-6" d="M387.74,425.45s-1.74-2.28-3.1-2.16-11.74,8.57-15.32,9.29-2.86,3.37-2.19,4.71,28.45-.35,28.45-.35.87-8.82-.08-11.36S390.55,426,387.74,425.45Z"/><path class="cls-7" d="M382,431.33a.48.48,0,0,0,.39,0,.51.51,0,0,0,.18-.69,7.65,7.65,0,0,0-2.65-2.7,3.48,3.48,0,0,0-3.55.2.5.5,0,0,0-.1.71.51.51,0,0,0,.7.1,2.45,2.45,0,0,1,2.51-.11,6.94,6.94,0,0,1,2.23,2.31A.46.46,0,0,0,382,431.33Z"/><path class="cls-7" d="M383.49,429.9a.52.52,0,0,0,.4,0,.51.51,0,0,0,.18-.69,7.85,7.85,0,0,0-2.65-2.7,3.46,3.46,0,0,0-3.56.21.5.5,0,1,0,.61.8,2.46,2.46,0,0,1,2.5-.1,6.73,6.73,0,0,1,2.23,2.3A.47.47,0,0,0,383.49,429.9Z"/><path class="cls-7" d="M380,432.51a.53.53,0,0,0,.39-.05.51.51,0,0,0,.18-.69,7.65,7.65,0,0,0-2.65-2.7,3.44,3.44,0,0,0-3.55.21.5.5,0,0,0-.1.7.51.51,0,0,0,.71.1,2.48,2.48,0,0,1,2.5-.11,6.82,6.82,0,0,1,2.23,2.31A.51.51,0,0,0,380,432.51Z"/><path class="cls-11" d="M403,291.83c-.18,2.93-.38,6.24-.6,9.8l-.12,2c0,.4-.05.79-.07,1.19-1.4,22.75-3.38,53.59-4.4,63.46-2.07,20.06-2.18,50.45-2.18,50.45h-11c-1-21.58-2.85-82.1-3.76-113.64,0-1-.05-2-.08-2.9-.12-4.1-.22-7.6-.29-10.33Z"/><path class="cls-9" d="M403,291.83c-.18,2.93-.38,6.24-.6,9.8l-.24,0a135.13,135.13,0,0,1-21.4.51c-.12-4.1-.22-7.6-.29-10.33Z"/><path class="cls-9" d="M398.25,291.83c-1,20.61-2.63,50.9-3.85,63.52-1.27,13-2.49,49-2.94,63.35h1.44c.45-14.39,1.67-50.23,2.93-63.21,1.23-12.66,2.84-43,3.86-63.66Z"/><polygon class="cls-15" points="383.34 414.72 383.84 419.77 397.07 419.77 397.47 414.72 383.34 414.72"/><polygon class="cls-17" points="410.39 418.13 410.67 425.69 417.58 425.32 417.74 417.29 410.39 418.13"/><path class="cls-6" d="M413.79,423.65a33.84,33.84,0,0,1,4.69-.75c1,.07,7.42,7.92,9.68,8.46,4.08,1,3.8,7.43,1.28,7.64-7.3.6-19.57-3-19.57-3s-.78-8.31-.17-10.88S411.73,424.32,413.79,423.65Z"/><path class="cls-7" d="M419.48,431a.44.44,0,0,1-.38-.09.5.5,0,0,1-.11-.7,7.72,7.72,0,0,1,2.92-2.4,3.5,3.5,0,0,1,3.52.58.52.52,0,0,1,0,.72.5.5,0,0,1-.71,0,2.5,2.5,0,0,0-2.48-.37,6.76,6.76,0,0,0-2.46,2.06A.49.49,0,0,1,419.48,431Z"/><path class="cls-7" d="M418.16,429.38a.51.51,0,0,1-.39-.09.5.5,0,0,1-.1-.7,7.63,7.63,0,0,1,2.92-2.4,3.45,3.45,0,0,1,3.52.58.5.5,0,0,1,0,.71.52.52,0,0,1-.72,0,2.48,2.48,0,0,0-2.48-.37,6.81,6.81,0,0,0-2.45,2.05A.5.5,0,0,1,418.16,429.38Z"/><path class="cls-7" d="M421.36,432.35a.52.52,0,0,1-.38-.09.51.51,0,0,1-.11-.71,7.88,7.88,0,0,1,2.93-2.4,3.46,3.46,0,0,1,3.51.59.5.5,0,0,1-.69.73,2.45,2.45,0,0,0-2.48-.37,6.77,6.77,0,0,0-2.46,2A.48.48,0,0,1,421.36,432.35Z"/><path class="cls-11" d="M424.06,291.83c-.05,1.65-.1,3.57-.16,5.74,0,.17,0,.34,0,.5-.82,28.59-2.83,97.32-3.95,120.63h-11s-.1-30.39-2.17-50.45c-1-9.88-3-40.73-4.4-63.48,0-.39-.05-.78-.08-1.17,0-.65-.08-1.31-.12-2-.21-3.56-.42-6.88-.59-9.82Z"/><path class="cls-9" d="M424.06,291.83c-.05,1.65-.1,3.57-.16,5.74a132,132,0,0,1-20.85,4l-.19,0-.5.06-.24,0c-.21-3.56-.42-6.88-.59-9.82Z"/><path class="cls-9" d="M406.23,291.83h-1.44c1,20.62,2.64,51,3.86,63.66,1.26,13,2.48,48.82,2.94,63.21H413c-.46-14.37-1.68-50.32-2.94-63.35C408.86,342.73,407.25,312.44,406.23,291.83Z"/><polygon class="cls-15" points="421.15 414.72 420.65 419.77 407.41 419.77 407.01 414.72 421.15 414.72"/><path class="cls-6" d="M427.54,292.78c-10.38,4.13-36.69,7.3-50.68,0,1.33-8.33,4.86-30,4.48-41.11,0-1.21-.1-2.42-.16-3.62q-.07-1.56-.18-3.09c-1.21-18.44-4.35-33.52-2.81-35.47a14.84,14.84,0,0,1,3.19-2.71c.55-.37,1.13-.75,1.75-1.12,1.45-.89,3.06-1.78,4.68-2.65,3.85-2.06,7.76-4,9.71-5.26a12.54,12.54,0,0,0,5.16,1.3H403a12.53,12.53,0,0,0,5.15-1.3c1.82,1.2,5.24,2.89,8.73,4.73a76.57,76.57,0,0,1,7.19,4.17,14.41,14.41,0,0,1,3.07,2.64c.76,1,.44,5.2-.21,11.47s-1.62,14.33-2.21,23.29c-.16,2.49-.3,5-.39,7.62C423.92,262.75,426.21,284.45,427.54,292.78Z"/><path class="cls-5" d="M418.5,270.74h0c-9.77,0-18.11-4.49-23.38-8.21a53.22,53.22,0,0,1-9.19-8.14.46.46,0,0,1,.05-.66.48.48,0,0,1,.67.06,52,52,0,0,0,9,8c5.16,3.64,13.31,8,22.82,8a.47.47,0,1,1,0,.94Z"/><path class="cls-5" d="M408.32,274.06c-8.47,0-16.93-4.83-17.31-5.05a.47.47,0,0,1,.47-.82c.1.06,10,5.74,18.86,4.83a.47.47,0,0,1,.52.42.46.46,0,0,1-.42.51A18.7,18.7,0,0,1,408.32,274.06Z"/><path class="cls-5" d="M400.82,221.5a.47.47,0,0,1-.09-.93c11.91-2.26,15.5-9.92,15.53-10a.47.47,0,0,1,.86.39c-.15.33-3.83,8.18-16.21,10.53Z"/><path class="cls-17" d="M416.84,202.48c-2.37,5.39-7.92,12.7-15.48,11.4-7.31-1.27-11-6.87-13.55-10.87,3.85-2.06,7.76-4,9.71-5.26a12.69,12.69,0,0,0,5.15,1.3H403a12.69,12.69,0,0,0,5.15-1.3C409.93,199,413.35,200.64,416.84,202.48Z"/><path class="cls-8" d="M403,199.24Z"/><path class="cls-17" d="M381,245c-8.1-15.7-6.9-29.06-2.81-35.47a12.69,12.69,0,0,1,3.19-2.71C382.8,213.41,386.37,233.37,381,245Z"/><path class="cls-17" d="M426.89,220.76c-.65,6.18-1.62,14.33-2.21,23.29-4.76-11.56-2.07-30.69-.65-37.4a14.41,14.41,0,0,1,3.07,2.64C427.86,210.26,427.54,214.49,426.89,220.76Z"/><rect class="cls-11" x="391.22" y="183.78" width="17.36" height="139.3" transform="translate(-54.19 387.41) rotate(-48.8)"/><rect class="cls-9" x="395.96" y="187.63" width="1.16" height="139.3" transform="translate(-58.24 386.19) rotate(-48.8)"/><rect class="cls-9" x="399.33" y="183.78" width="1.16" height="139.3" transform="translate(-54.19 387.41) rotate(-48.8)"/><rect class="cls-9" x="402.69" y="179.94" width="1.16" height="139.3" transform="translate(-50.15 388.63) rotate(-48.8)"/><rect class="cls-8" x="440.89" y="293.27" width="17.36" height="7.28" transform="translate(-69.95 439.62) rotate(-48.8)"/><path class="cls-6" d="M446.59,305.84l1.56,1.37a8.69,8.69,0,0,0,12.26-.82h0a8.69,8.69,0,0,0-.82-12.25L458,292.78Z"/><polygon class="cls-17" points="353.21 201.03 341.78 214.09 336.4 202.53 335.28 200.13 332.13 193.33 339.32 195.96 342.12 196.98 353.21 201.03"/><path class="cls-6" d="M339.32,196a9.23,9.23,0,0,1-1.52,2.34,6.37,6.37,0,0,1-2.52,1.83l-3.15-6.8Z"/><path class="cls-17" d="M406.07,274s-.56,1.3,1.35,2.21a1.68,1.68,0,0,0,1,1.82,1.88,1.88,0,0,0,1.37,1.88c1.4.31,4.77,1.27,11.68-2.85,0,0,20.54-16.45,18-32.12s-12.34-35.67-12.34-35.67c-2.79,8.45-3.76,23.56-3.76,23.56s6.65,10.25,4.7,18.5c-1.3,5.48-6.52,14-9.26,18.5a3.73,3.73,0,0,1-2-1.73c-.32-.54-.77-1.53-1.05-1.86-.81-.93-2.92-2.44-3.68-2.44s-.52,1.39.05,2a12.42,12.42,0,0,1,2,2.14c.51.83-3.49,2.87-5.14,3.4s-4.65-.18-4.85,1.23S406.07,274,406.07,274Z"/><path class="cls-17" d="M359.43,236.32s5.2,16,9.94,16.17,9.56-5.88,9.56-5.88l-5.4-4.73-1.44-1.26-6.29-5.5a42.49,42.49,0,0,0-3.24-2.84c.82-.66,1.95-1.25,2.08-2.1.2-1.37-3.8.76-4,.84.17-.1,3.13-2.8,2.61-3.61s-2.51.25-4.51,1.78c.13-.14,4.2-4.36,3.27-5s-5.37,3.07-5.71,3.32c.37-.39,4.65-4.66,3.83-5.57-.59-.65-4.58,1.94-6.94,4.1-.48.43-1.24,1.18-1.28,1.82C351.55,233,357.06,235,359.43,236.32Z"/><path class="cls-18" d="M372.48,244.83a.51.51,0,0,0,.36.62l.13,0a.52.52,0,0,0,.5-.39,7.23,7.23,0,0,0,.06-3.2l-1.44-1.26A7,7,0,0,1,372.48,244.83Z"/><path class="cls-8" d="M396.34,190.87h14.2a10.13,10.13,0,0,0,10.08-11.16l0-.25c-.4-4.21-1-10-1-10-1.47-12.63-14.39-14.1-14.39-14.1-15.57-2.09-20,11-19.94,18.21,0,.49,0,1,.06,1.48v0a55,55,0,0,0,1.4,8A9.85,9.85,0,0,0,396.34,190.87Z"/><circle class="cls-8" cx="409.03" cy="158.16" r="11.34"/><path class="cls-18" d="M390.35,176s-2.31-2.92-4-.5.71,9.57,4.91,7.82Z"/><path class="cls-7" d="M389.36,182.77a.77.77,0,1,1-.77-.76A.76.76,0,0,1,389.36,182.77Z"/><path class="cls-19" d="M390.33,181.06a.37.37,0,0,1-.35-.24,5.31,5.31,0,0,0-3.08-3.11.34.34,0,0,1-.2-.44.36.36,0,0,1,.45-.2,6,6,0,0,1,3.52,3.56.34.34,0,0,1-.25.42Z"/><path class="cls-19" d="M387.9,180a.46.46,0,0,1-.2,0,.33.33,0,0,1-.1-.47,3.18,3.18,0,0,1,1.33-1,.36.36,0,0,1,.47.17.32.32,0,0,1-.18.44,2.44,2.44,0,0,0-1,.78A.37.37,0,0,1,387.9,180Z"/><path class="cls-17" d="M408.16,190.91v7.88s-4.07,4-7.25,4.3-4.28-3.47-4.28-3.47v-8.16Z"/><path class="cls-18" d="M408.16,191.77v3.49c-2.13,2.37-5.92,3.21-11.53,2.38v-5.32Z"/><path class="cls-17" d="M389,179.29c.1.84.22,1.71.37,2.56,1,5.71,4.61,11.86,9.17,12.9,9.83,2.23,13.92-5.49,15.49-11.19.17-.63-.15-1.36,0-2.11a55,55,0,0,0,1.21-5.78c.11-1.38.19-2.74.25-4a8.05,8.05,0,0,0-5-7.89c-4.52-1.8-11.38-3.22-17.88.59a8.16,8.16,0,0,0-4,6.87A60.7,60.7,0,0,0,389,179.29Z"/><path class="cls-18" d="M401,183.7a.38.38,0,0,0,.06-.76l-1.31-.22,1.81-4.81a.38.38,0,0,0-.23-.49.37.37,0,0,0-.49.22l-2.13,5.68,2.22.37Z"/><path class="cls-8" d="M416.48,170.66c-.07,1.25-.15,2.64-.27,4-.64.38-2.19.56-2.26,1.58-.17,2.71-.3,4.57-.87,4.41-1-.28-1.55-3.56-.46-5.68,0,0-.88-1.44-4.46-2.82a69.22,69.22,0,0,1-9-4.39,8.31,8.31,0,0,1-2.42-2.19,8.12,8.12,0,0,1-4,4.07c-2.46,1.12-2.84,3.4-3.14,5.49,0,.24-.07.48-.1.72a7.13,7.13,0,0,1-.68,2.4c-.08.15-.17.18-.26.1-.12-.95-.2-1.9-.26-2.81,0-.25,0-.49-.05-.73-.09-1.71-.1-3.29-.07-4.63a8.2,8.2,0,0,1,4.17-7c6.86-3.89,14.09-2.44,18.86-.61A8.22,8.22,0,0,1,416.48,170.66Z"/><path class="cls-8" d="M396.15,177.33c0,.84-.43,1.52-1,1.52s-1-.68-1-1.52.44-1.52,1-1.52S396.15,176.49,396.15,177.33Z"/><ellipse class="cls-8" cx="405.99" cy="177.33" rx="0.97" ry="1.52"/><path class="cls-8" d="M392.92,173.33a18.62,18.62,0,0,1,4-.34c.44,0,.79.35.73.7h0a.62.62,0,0,1-.7.44,21.21,21.21,0,0,0-5.53.35.72.72,0,0,1,.29-.6A2.33,2.33,0,0,1,392.92,173.33Z"/><path class="cls-8" d="M408.49,173.52a18.55,18.55,0,0,0-4-.4c-.44,0-.8.34-.74.69h0a.63.63,0,0,0,.7.45,21.36,21.36,0,0,1,5.52.42.71.71,0,0,0-.29-.6A2.27,2.27,0,0,0,408.49,173.52Z"/><path class="cls-7" d="M396.73,186a4.36,4.36,0,0,0,4.4,3.81c3.17,0,4.07-2.25,4.37-3.81Z"/><path class="cls-18" d="M401.08,192.08a3.68,3.68,0,0,1-1.76-.52.37.37,0,0,1-.12-.51.37.37,0,0,1,.52-.12h0a3,3,0,0,0,1.36.4,3.27,3.27,0,0,0,1.44-.4.37.37,0,0,1,.51.12.38.38,0,0,1-.12.52A4,4,0,0,1,401.08,192.08Z"/><path class="cls-17" d="M414,175.93s2.69-3.26,4.27-.91-.65,9.29-4.53,7.6Z"/><path class="cls-7" d="M416.22,182.77a.77.77,0,1,1-1.54,0,.77.77,0,0,1,1.54,0Z"/><path class="cls-18" d="M414.62,180.47a.32.32,0,0,0,.32-.24,5.09,5.09,0,0,1,2.84-3,.32.32,0,0,0,.19-.42.33.33,0,0,0-.42-.19,5.66,5.66,0,0,0-3.24,3.46.32.32,0,0,0,.23.4Z"/><path class="cls-18" d="M416.87,179.39a.26.26,0,0,0,.17,0,.33.33,0,0,0,.1-.45,2.93,2.93,0,0,0-1.23-1,.32.32,0,1,0-.27.59,2.42,2.42,0,0,1,.95.75A.32.32,0,0,0,416.87,179.39Z"/><path class="cls-7" d="M402.24,176.61v.66a4.88,4.88,0,0,0,4.87,4.88h.16a4.38,4.38,0,0,0,3-1.34,4.8,4.8,0,0,0,1.4-3.42v-.78a1.73,1.73,0,0,0-.11-.6,1.77,1.77,0,0,0-.39-.61,1.71,1.71,0,0,0-1.21-.5h-6a1.71,1.71,0,0,0-1.55,1,1.75,1.75,0,0,0-.17.69Zm.71,0a1,1,0,0,1,1-1h6a1,1,0,0,1,1,1v.78a4,4,0,0,1-1.19,2.91,3.69,3.69,0,0,1-2.55,1.14h-.14a4.18,4.18,0,0,1-4.16-4.17Z"/><path class="cls-7" d="M390.16,176.61v.66a4.88,4.88,0,0,0,1.45,3.47,4.83,4.83,0,0,0,3.42,1.41h.16a4.36,4.36,0,0,0,3-1.34,4.81,4.81,0,0,0,1.41-3.42v-.81a1.87,1.87,0,0,0-.15-.66,1.71,1.71,0,0,0-1.57-1h-6a1.72,1.72,0,0,0-1.32.62,1.66,1.66,0,0,0-.33.63A1.83,1.83,0,0,0,390.16,176.61Zm.72,0a1,1,0,0,1,1-1h6a1,1,0,0,1,1,1v.78a4.06,4.06,0,0,1-1.2,2.91,3.67,3.67,0,0,1-2.54,1.14H395a4.17,4.17,0,0,1-4.15-4.17Z"/><path class="cls-7" d="M415.57,174.6a8.48,8.48,0,0,0-3.66.8c-.16.08-.59.36-.61.37l.34.61s.48-.29.66-.37a7.32,7.32,0,0,1,2.29-.65Z"/><path class="cls-7" d="M402.72,176.64,403,176a7,7,0,0,0-2.13-.36,4.69,4.69,0,0,0-2,.38l.31.64a4,4,0,0,1,1.65-.31A6.75,6.75,0,0,1,402.72,176.64Z"/><path class="cls-7" d="M390.84,175.65l-.31.64a6.9,6.9,0,0,0-1-.4,8.35,8.35,0,0,0-1.2-.31c0-.25,0-.49-.05-.73a10.74,10.74,0,0,1,1.35.32A7.86,7.86,0,0,1,390.84,175.65Z"/><path class="cls-17" d="M191.14,310.18c-.14-.69-2.5-1.59-4.79-2.3a1.82,1.82,0,0,0,.07-.25c3.18.63,8.68,1.51,8.21,0-.31-1-5-1.88-7.83-2.34,0-.15,0-.31,0-.46,3.38.5,10,1.28,9.36-.39-.42-1.11-6.21-1.84-9.2-2.14,0-.14,0-.27,0-.4,2.89.3,8.44.69,7.81-1-.56-1.5-9.15-1.64-9.15-1.64h0l-3.2-.44s0-1.12,2.3-1.87,3.36-2.38.42-2.2c-3.32.2-6.15,1.39-8.46,1.46s-4.71,2.38-4.71,2.38l-.94,6.24s8.4,5.06,13.89,4.92h0C187.87,310.63,191.39,311.4,191.14,310.18Z"/><path class="cls-17" d="M175,337.05c0,3.35.06,6.09,0,10.25-2.57-2.51-7.27-6.34-7.27-6.34l3.48-3.4S173.37,336.38,175,337.05Z"/><path class="cls-9" d="M144.62,266.33c-1.42,9.14.94,35.33,3.9,40.29,3.86,6.47,18.18,21.75,25.67,29.63,1.35,1.42-6.91,5.93-6.91,5.93s-22.13-16.58-29.05-27.05c-2-3-5.25-11.52-7.46-26.73-.67-4.61-2.75-14.11-1.06-19.48C131.65,262.74,139.4,261.65,144.62,266.33Z"/><path class="cls-17" d="M137.36,416.23l-.19,9.72s2.43,1.74,7.38.78l1.87-10.48Z"/><path class="cls-11" d="M143.48,425.48s1.65-2.37,3-2.31,12.18,8.15,15.82,8.74,3.53,5.1,2.11,5.64c-1.62.61-28.46.5-28.46.5s-1.17-9.53-.32-12.13S140.67,426.17,143.48,425.48Z"/><path class="cls-7" d="M149.49,431.17a.56.56,0,0,1-.4,0,.51.51,0,0,1-.21-.69,7.91,7.91,0,0,1,2.56-2.83,3.5,3.5,0,0,1,3.59.06.51.51,0,0,1-.58.84,2.48,2.48,0,0,0-2.53,0,6.93,6.93,0,0,0-2.14,2.42A.52.52,0,0,1,149.49,431.17Z"/><path class="cls-7" d="M147.94,429.79a.51.51,0,0,1-.4,0,.5.5,0,0,1-.21-.68,7.65,7.65,0,0,1,2.56-2.83,3.48,3.48,0,0,1,3.59.06.51.51,0,1,1-.58.83,2.5,2.5,0,0,0-2.53,0,7,7,0,0,0-2.15,2.41A.49.49,0,0,1,147.94,429.79Z"/><path class="cls-7" d="M151.57,432.27a.51.51,0,0,1-.4,0,.51.51,0,0,1-.21-.68,7.94,7.94,0,0,1,2.56-2.83,3.53,3.53,0,0,1,3.6.06.52.52,0,0,1,.12.71.5.5,0,0,1-.71.12,2.51,2.51,0,0,0-2.52,0,7,7,0,0,0-2.15,2.41A.51.51,0,0,1,151.57,432.27Z"/><path class="cls-5" d="M147.4,418.69a13,13,0,0,1-7.8-.35c-.41-.13-.8-.29-1.18-.45a8.89,8.89,0,0,1-2.57-1.64s-3.61-9.29-.83-36.36c.37-3.6-.17-11.79,3.44-26.36-17.39,4.21-32,2.35-45-3l17.29-16.68s43.72-4.93,50.55,8.42C165.89,351.24,147.4,418.69,147.4,418.69Z"/><path class="cls-12" d="M143.76,350.76c-1.08,5.38-3.57,18.62-3.3,25.26a74.7,74.7,0,0,1-.81,10.84c-1,8.56-2.28,19.18-.05,31.48-.41-.13-.8-.29-1.18-.45-2.1-12.18-.86-22.67.15-31.16a72.85,72.85,0,0,0,.81-10.66c-.27-6.52,2-18.79,3.32-25.52a1.53,1.53,0,0,0-1.91-1.77c-14.07,3.89-33,2.89-33.24,2.88a.55.55,0,0,1-.51-.58.55.55,0,0,1,.57-.51c.19,0,19,1,32.89-2.83a2.6,2.6,0,0,1,3.26,3Z"/><polygon class="cls-12" points="134.63 413.3 134.58 418.5 148.06 419.96 149.02 414.86 134.63 413.3"/><path class="cls-17" d="M51.37,406.59l-8.72,4.3s-.43,2.95,2.7,6.91l10.16-3.15Z"/><path class="cls-11" d="M46,416.27s2.86.39,3.44,1.63-1.64,14.57-.49,18.07-2.91,5.48-4,4.46c-1.29-1.15-13.54-25-13.54-25S39.28,410,42,409.53,44.06,414.09,46,416.27Z"/><path class="cls-7" d="M43.68,424.23a.52.52,0,0,1-.16-.37.51.51,0,0,1,.52-.5,7.71,7.71,0,0,1,3.68,1,3.49,3.49,0,0,1,1.6,3.22.5.5,0,0,1-.57.43.49.49,0,0,1-.43-.57,2.51,2.51,0,0,0-1.17-2.24,6.79,6.79,0,0,0-3.12-.8A.53.53,0,0,1,43.68,424.23Z"/><path class="cls-7" d="M44.19,422.21a.52.52,0,0,1-.15-.37.5.5,0,0,1,.51-.5,7.87,7.87,0,0,1,3.69,1,3.5,3.5,0,0,1,1.6,3.22.51.51,0,0,1-.57.44.51.51,0,0,1-.44-.57,2.5,2.5,0,0,0-1.16-2.25,6.93,6.93,0,0,0-3.13-.79A.56.56,0,0,1,44.19,422.21Z"/><path class="cls-7" d="M43.66,426.58a.45.45,0,0,1-.15-.37.5.5,0,0,1,.51-.5,7.9,7.9,0,0,1,3.69,1,3.51,3.51,0,0,1,1.59,3.22.5.5,0,1,1-1-.13,2.53,2.53,0,0,0-1.16-2.25,6.79,6.79,0,0,0-3.13-.79A.54.54,0,0,1,43.66,426.58Z"/><path class="cls-6" d="M128.07,393.83c-5.87,8.22-74.27,22.8-74.27,22.8a12.83,12.83,0,0,1-3.24-6.83c-.07-.4-.12-.8-.15-1.19a9.11,9.11,0,0,1,.25-3.36s3.33-4.06,28.66-14c3.36-1.32,10.39-7.1,21.37-11.07-9.47-16.7-17.19-32.93-17.66-47.2L88,334.29l1.13.31,21.44,5.86C119.49,357.4,132.82,387.18,128.07,393.83Z"/><path class="cls-5" d="M105,380.81a2.61,2.61,0,0,1-1.33,1.58c-4.37,2.21-15.07,7.75-20,11.26C81,395.58,75,398.22,68.58,401c-6.89,3-14,6.14-18,8.78-.07-.4-.12-.8-.15-1.19C54.58,406,61.46,403,68.15,400c6.32-2.77,12.29-5.39,14.91-7.25,5-3.56,15.76-9.12,20.16-11.35a1.56,1.56,0,0,0,.65-2.15C92.37,358.53,89,342.2,88,334.29l1.13.31c1.06,7.94,4.51,23.91,15.73,44.15A2.61,2.61,0,0,1,105,380.81Z"/><polygon class="cls-5" points="52.47 403.36 47.76 405.55 52.24 418.34 57.26 417.02 52.47 403.36"/><path class="cls-11" d="M120.6,244s-10.95-.18-17.81,2.62S95.24,260,92.41,267.75s-16.91,58.43-7.66,68c7,7.24,44.91,13,46.32.48a401.85,401.85,0,0,1,6.9-43.69c2.87-13.2,6.74-22.35,7.14-28.1s-14-17.48-14-17.48Z"/><path class="cls-9" d="M124.72,255.85c-5.14-1.77-8-8.86-8.11-9.17a.38.38,0,0,1,.21-.5.38.38,0,0,1,.5.22c0,.07,3,7.5,8.09,8.87a.37.37,0,0,1,.27.47.38.38,0,0,1-.46.27Z"/><path class="cls-9" d="M99.08,315.7a.39.39,0,0,1-.25-.45.4.4,0,0,1,.46-.29c13.79,3.05,27.21-18,27.34-18.22a.38.38,0,0,1,.65.4c-.56.89-13.84,21.74-28.16,18.57Z"/><path class="cls-9" d="M106.76,310.57a.38.38,0,0,1,0-.73c8.56-1.92,11.82-8,11.85-8a.38.38,0,0,1,.68.36c-.14.26-3.44,6.42-12.36,8.42A.37.37,0,0,1,106.76,310.57Z"/><path class="cls-8" d="M144.92,224.71a15.37,15.37,0,1,1-11.56-18.41A15.37,15.37,0,0,1,144.92,224.71Z"/><path class="cls-8" d="M120.38,236.69s-.82,2.25-4.82-1,.4-9.77-1.73-14-2.91-6.92.09-9.92,0-5.92,5.16-6.17,3.71-5,8.09-5.41,4.46,3.33,8.58,1.83,7.75,2.5,10.38,4,5.62,2.67,5.45,5.67-1.75,8.58-9.5,7.83C135.79,218.89,122.5,226.19,120.38,236.69Z"/><path class="cls-18" d="M141.45,228.33s3.09-2.62,4.26.4-3.09,10.18-7,7.3Z"/><path class="cls-19" d="M140.22,233.86a.37.37,0,0,0,.41-.19,5.83,5.83,0,0,1,3.93-2.64.37.37,0,0,0-.1-.74,6.47,6.47,0,0,0-4.49,3,.38.38,0,0,0,.15.51Z"/><path class="cls-19" d="M143,233.23a.39.39,0,0,0,.21,0,.37.37,0,0,0,.22-.48,3.29,3.29,0,0,0-1.12-1.41.36.36,0,0,0-.52.07.37.37,0,0,0,.07.52,2.66,2.66,0,0,1,.87,1.08A.38.38,0,0,0,143,233.23Z"/><path class="cls-17" d="M120.92,238.86l-1.75,7.69s2.39,4.11,5.42,5.09,5.76-2.28,5.76-2.28L132,242Z"/><path class="cls-18" d="M120.92,238.86l-.77,3.41c1.55,2.79,5.11,4.21,10.76,4.65L132,242Z"/><path class="cls-17" d="M145,223.15a59.18,59.18,0,0,1-2.25,8c-.28.77-.58,1.54-.91,2.3-2.33,5.43-5.92,10.47-11.33,11.12-11.1,1.32-13.65-7.3-14.26-13.41-.07-.64-.11-1.24-.14-1.81s0-1.4,0-2.18a76.24,76.24,0,0,1,1.22-9.94,8.21,8.21,0,0,1,6.92-6.68c5.05-.72,12.43-.52,18.25,4.79A8.23,8.23,0,0,1,145,223.15Z"/><path class="cls-8" d="M135.52,228c-.18.82.09,1.58.61,1.7s1.1-.45,1.28-1.27-.08-1.58-.6-1.7S135.71,227.21,135.52,228Z"/><path class="cls-8" d="M124.46,225.5c-.19.82.09,1.59.61,1.7s1.09-.44,1.28-1.27-.08-1.58-.6-1.7S124.65,224.68,124.46,225.5Z"/><path class="cls-8" d="M140.58,224.39s-3.57-2.46-6.9-1.84l-.07,1.46a13.1,13.1,0,0,1,6.38,2C140.34,225.36,140.69,225.11,140.58,224.39Z"/><path class="cls-8" d="M122.59,220.27s4.29-.65,7,1.35L129,223a13,13,0,0,0-6.59-1C122.38,221.25,122.18,220.88,122.59,220.27Z"/><path class="cls-18" d="M129.31,232.14a3.85,3.85,0,0,1-1.25-.59.37.37,0,1,1,.43-.61c.3.21,1,.6,1.43.47.07,0,.18-.08.26-.29a55.35,55.35,0,0,0,1-5.65.38.38,0,0,1,.75.11,58.27,58.27,0,0,1-1.09,5.78,1.17,1.17,0,0,1-.74.77A1.7,1.7,0,0,1,129.31,232.14Z"/><path class="cls-7" d="M132.17,236.26c-.56,1.2-2,3.32-4.76,2.63s-3.08-3-3-4.52Z"/><path class="cls-8" d="M141.27,230.85a15.56,15.56,0,0,0,1.36-4.37c.05-1.84-1.17-3.21-.3-4.8s-.5-3.83-1.76-4.44-4.49-.66-7.2-2.8-7.87-2.21-9.12-.53c-1.51,2-.2,2.55-3.48,4.37-1.3.73-.6,3.55-.79,5.23a10.92,10.92,0,0,1-.38,2l-.1.41-3.26-.75c.23-2.63.66-5.49,1.09-7.86a8.21,8.21,0,0,1,6.92-6.68c5.05-.72,12.43-.53,18.25,4.8a8.2,8.2,0,0,1,2.51,7.75,58.88,58.88,0,0,1-2.25,8.05Z"/><path class="cls-17" d="M117.36,226.87a14.22,14.22,0,0,0,.39-2.59c0-1.19,0-2.3-1.1-3.05a2.05,2.05,0,0,0-2.82.06c-2.37,2.22-2.26,10.81,2.49,9.91Z"/><path class="cls-18" d="M116,228.64a.38.38,0,0,1-.22-.4,5.81,5.81,0,0,0-1.55-4.48.37.37,0,0,1,0-.53.39.39,0,0,1,.53,0,6.46,6.46,0,0,1,1.76,5.12.38.38,0,0,1-.43.32Z"/><path class="cls-18" d="M114.2,226.46a.29.29,0,0,1-.16-.13.37.37,0,0,1,.1-.52,3.43,3.43,0,0,1,1.75-.46.38.38,0,1,1,0,.75,2.69,2.69,0,0,0-1.34.34A.36.36,0,0,1,114.2,226.46Z"/><path class="cls-9" d="M100.6,247.88c6.43,7.58,29.87,34.05,35,36.79,6.63,3.56,27.4,9,37.86,11.89,1.89.52-1.16,10.07-1.16,10.07s-29.85-3.95-41.16-9.37c-3.2-1.54-15.76-9.82-25-19.84-3.15-3.43-7.65-9.32-9.65-14.58C94.06,256.51,96.26,250.75,100.6,247.88Z"/><path class="cls-5" d="M465.91,335.37v25.31A2.92,2.92,0,0,1,463,363.6H437.68a5.55,5.55,0,0,1-4.74-3.36,1.94,1.94,0,0,1-.13-.3l-.15-.46s0,0,0-.05v-.07l-.05-20v-5.85a2.93,2.93,0,0,1,2.61-2.91h.31l25.82.1a2,2,0,0,1,.35,0h0A5.2,5.2,0,0,1,465.91,335.37Z"/><path class="cls-6" d="M463.74,333.54v25.3a2.92,2.92,0,0,1-2.92,2.92H435.51a2.92,2.92,0,0,1-2.57-1.52,1.94,1.94,0,0,1-.13-.3l-.15-.46s0,0,0-.05,0-.05,0-.07a3,3,0,0,1-.05-.52v-25.3a2.93,2.93,0,0,1,2.61-2.91h25.62a2.71,2.71,0,0,1,.86.13h0A2.91,2.91,0,0,1,463.74,333.54Z"/><path class="cls-7" d="M448.78,336a9.73,9.73,0,1,0,9.73,9.73A9.75,9.75,0,0,0,448.78,336Zm.39,13.33v-3.41h4.4a12.94,12.94,0,0,1-.52,3.41Zm2.76,3.88a11.05,11.05,0,0,0,1.69-3.1h3a8.9,8.9,0,0,1-5.82,4.35A9.3,9.3,0,0,0,451.93,353.23Zm.86-3.1a9.92,9.92,0,0,1-1.46,2.59,8,8,0,0,1-2.16,2v-4.56ZM449.17,341v-4.15l.35,0a12.23,12.23,0,0,1,3.05,4.13Zm4.26,0a12.91,12.91,0,0,0-1.31-2.39,13,13,0,0,0-1.24-1.52,9,9,0,0,1,5.45,3.91Zm-4.26,4.19v-3.41h3.72a11.42,11.42,0,0,1,.68,3.41Zm5.18,0a11.74,11.74,0,0,0-.63-3.41h3.06a8.85,8.85,0,0,1,.93,3.41Zm3.38.79a9.09,9.09,0,0,1-.75,3.41h-3.11a13.5,13.5,0,0,0,.48-3.41Zm-13.94,3.41h-3.2a8.72,8.72,0,0,1-.75-3.41h3.46A14,14,0,0,0,443.79,349.35Zm1.29-8.39a11.72,11.72,0,0,1,1.09-1.92,11.43,11.43,0,0,1,2-2.21l.25,0V341Zm3.31.78v3.41h-4.3a11.16,11.16,0,0,1,.67-3.41Zm-7.16-.78a9,9,0,0,1,5.56-3.93,12.54,12.54,0,0,0-1.25,1.54,12.91,12.91,0,0,0-1.31,2.39Zm7.16,5v3.41H444.6a12.94,12.94,0,0,1-.52-3.41Zm-8.54-.79a8.85,8.85,0,0,1,.93-3.41h3.15a12.44,12.44,0,0,0-.63,3.41Zm4.18,5a11.05,11.05,0,0,0,1.69,3.1,10.48,10.48,0,0,0,1.2,1.28,9,9,0,0,1-5.94-4.38Zm4.36,0v4.51a9.25,9.25,0,0,1-3.52-4.51Z"/><path class="cls-9" d="M93.58,200.15v25.31a2.92,2.92,0,0,1-2.92,2.92H65.35A5.55,5.55,0,0,1,60.61,225a1.94,1.94,0,0,1-.13-.3l-.15-.46s0,0,0,0v-.07l-.05-20v-5.85a2.93,2.93,0,0,1,2.61-2.91h.31l25.82.1a2,2,0,0,1,.35,0h0A5.2,5.2,0,0,1,93.58,200.15Z"/><path class="cls-11" d="M91.41,198.32v25.3a2.92,2.92,0,0,1-2.92,2.92H63.18A2.92,2.92,0,0,1,60.61,225a1.94,1.94,0,0,1-.13-.3l-.15-.46s0,0,0,0,0-.05,0-.07a3,3,0,0,1-.05-.52v-25.3a2.93,2.93,0,0,1,2.61-2.91H88.49a2.71,2.71,0,0,1,.86.13h0A2.91,2.91,0,0,1,91.41,198.32Z"/><path class="cls-20" d="M83.06,212.17c-2.29-4.28-4.76-8.19-6.76-13v6.95a1.6,1.6,0,1,1-.93,0v-6.95c-2,4.8-3.73,6.7-6.76,13l4.82,4.88h4.74Z"/><rect class="cls-20" x="73.42" y="218.59" width="4.74" height="2.6"/><path class="cls-6" d="M57.85,161.64A4.68,4.68,0,1,1,62.53,157,4.69,4.69,0,0,1,57.85,161.64Zm0-7.89A3.21,3.21,0,1,0,61.06,157,3.21,3.21,0,0,0,57.85,153.75Z"/><path class="cls-11" d="M54.64,136a4.68,4.68,0,1,1,4.68-4.68A4.69,4.69,0,0,1,54.64,136Zm0-7.89a3.21,3.21,0,1,0,3.21,3.21A3.21,3.21,0,0,0,54.64,128.07Z"/><path class="cls-11" d="M76.52,137a.74.74,0,0,1-.73-.74V133a.74.74,0,1,1,1.47,0v3.23A.74.74,0,0,1,76.52,137Z"/><path class="cls-11" d="M76.52,142.61a.73.73,0,0,1-.73-.73v-3.24a.74.74,0,0,1,1.47,0v3.24A.74.74,0,0,1,76.52,142.61Z"/><path class="cls-11" d="M81.07,138.16H78.16a.74.74,0,0,1,0-1.47h2.91a.74.74,0,0,1,0,1.47Z"/><path class="cls-11" d="M74.89,138.16H72a.74.74,0,0,1,0-1.47h2.91a.74.74,0,0,1,0,1.47Z"/><path class="cls-6" d="M73.44,111.55a.74.74,0,0,1-.74-.73v-3.24a.74.74,0,0,1,1.47,0v3.24A.73.73,0,0,1,73.44,111.55Z"/><path class="cls-6" d="M73.44,117.22a.74.74,0,0,1-.74-.74v-3.23a.74.74,0,1,1,1.47,0v3.23A.74.74,0,0,1,73.44,117.22Z"/><path class="cls-6" d="M78,112.77H75.07a.74.74,0,0,1,0-1.47H78a.74.74,0,0,1,0,1.47Z"/><path class="cls-6" d="M71.8,112.77H68.89a.74.74,0,0,1,0-1.47H71.8a.74.74,0,0,1,0,1.47Z"/><path class="cls-6" d="M470.49,206.24a4.68,4.68,0,1,1,4.67-4.68A4.69,4.69,0,0,1,470.49,206.24Zm0-7.89a3.21,3.21,0,1,0,3.21,3.21A3.21,3.21,0,0,0,470.49,198.35Z"/><path class="cls-11" d="M444.64,198.07a4.68,4.68,0,1,1,4.68-4.68A4.69,4.69,0,0,1,444.64,198.07Zm0-7.89a3.21,3.21,0,1,0,3.21,3.21A3.21,3.21,0,0,0,444.64,190.18Z"/><path class="cls-11" d="M457.26,215.78a.74.74,0,0,1-.74-.74v-3.23a.74.74,0,1,1,1.47,0V215A.74.74,0,0,1,457.26,215.78Z"/><path class="cls-11" d="M457.26,221.44a.74.74,0,0,1-.74-.73v-3.24a.74.74,0,0,1,1.47,0v3.24A.73.73,0,0,1,457.26,221.44Z"/><path class="cls-11" d="M461.8,217h-2.91a.74.74,0,0,1,0-1.47h2.91a.74.74,0,0,1,0,1.47Z"/><path class="cls-11" d="M455.62,217h-2.91a.74.74,0,0,1,0-1.47h2.91a.74.74,0,1,1,0,1.47Z"/><path class="cls-6" d="M459.78,178.76a.73.73,0,0,1-.73-.74v-3.23a.73.73,0,1,1,1.46,0V178A.74.74,0,0,1,459.78,178.76Z"/><path class="cls-6" d="M459.78,184.42a.73.73,0,0,1-.73-.73v-3.24a.73.73,0,0,1,1.46,0v3.24A.73.73,0,0,1,459.78,184.42Z"/><path class="cls-6" d="M464.32,180h-2.9a.74.74,0,1,1,0-1.47h2.9a.74.74,0,1,1,0,1.47Z"/><path class="cls-6" d="M458.14,180h-2.9a.74.74,0,1,1,0-1.47h2.9a.74.74,0,1,1,0,1.47Z"/></g></g></svg>